<?xml version="1.0" standalone="no"?>
<svg viewBox="0 0 200 200" xmlns="http://www.w3.org/2000/svg">
  <path fill="#0F62FE" d="M41.4,-74.7C51.5,-65.8,56.1,-50.5,63.7,-36.9C71.3,-23.4,81.8,-11.7,84.7,1.7C87.7,15.1,83,30.2,73.5,40.3C63.9,50.4,49.5,55.6,36.5,61.6C23.4,67.6,11.7,74.4,-1.8,77.4C-15.3,80.5,-30.5,79.9,-41,72.5C-51.6,65,-57.3,50.7,-63,37.5C-68.7,24.3,-74.2,12.2,-77.1,-1.7C-80,-15.5,-80.1,-30.9,-73.1,-41.7C-66,-52.5,-51.7,-58.7,-38.4,-65.7C-25,-72.7,-12.5,-80.5,1.6,-83.3C15.6,-86,31.3,-83.6,41.4,-74.7Z" transform="translate(100 100)" />
</svg>
